<svg width="863" height="184" viewBox="0 0 863 184" fill="none" xmlns="http://www.w3.org/2000/svg">
<path d="M203.152 0V184H241.686V130.549H256.581V184H332.597V145.451H295.127V130.549H332.597V0H203.152ZM294.05 91.9872H241.686V38.5492H294.05V91.9872Z" fill="#A4A6A7"/>
<path d="M442.71 145.438H390.345V0H351.812V184H481.256V0H442.71V145.438Z" fill="#A4A6A7"/>
<path d="M500.484 0V111.275H591.383V145.438H500.484V184H629.916V72.7254H539.018V38.5492H629.916V0H500.484Z" fill="#A4A6A7"/>
<path d="M649.144 0V38.5492H694.599V184H733.133V38.5492H778.588V0H649.144Z" fill="#A4A6A7"/>
<path d="M183.924 0H0V184H183.924V0Z" fill="#CD412B"/>
<path d="M60.2228 83.0359L21.1768 76.5213V115.583L60.2228 109.082V83.0359Z" fill="#1E2020"/>
<path d="M79.7459 83.0359H66.7349V109.082H79.7459V83.0359Z" fill="#1E2020"/>
<path d="M109.037 60.2476L115.536 21.1854H76.4897L83.0017 60.2476H109.037Z" fill="#1E2020"/>
<path d="M109.036 66.7622H83.0015V79.7786H109.036V66.7622Z" fill="#1E2020"/>
<path d="M96.019 86.8514L86.8188 96.0553L96.019 105.259L105.219 96.0553L96.019 86.8514Z" fill="#1E2020"/>
<path d="M112.126 130.588L135.123 162.802L162.735 135.179L130.534 112.172L112.126 130.588Z" fill="#1E2020"/>
<path d="M116.722 98.3566L98.3125 116.773L107.513 125.977L125.922 107.561L116.722 98.3566Z" fill="#1E2020"/>
<path d="M863 84.6774H825.518V122.432H797.714V84.6774H760.437V57.5929H797.714V19.8388H825.505V57.5929H862.987V84.6774H863Z" fill="#A4A6A7"/>
</svg>
